<svg width="34" height="35" viewBox="0 0 34 35" fill="none" xmlns="http://www.w3.org/2000/svg">
<path d="M23.8397 16.2171C23.8397 16.6088 24.1602 16.9292 24.5518 16.9292C24.9435 16.9292 25.264 16.6088 25.264 16.2171C25.264 12.2221 22.0167 8.97484 18.0217 8.97484C17.63 8.97484 17.3096 9.2953 17.3096 9.68696C17.3096 10.0858 17.63 10.3991 18.0217 10.3991C21.2334 10.3991 23.8397 13.0126 23.8397 16.2171ZM18.0217 0.27272C17.63 0.27272 17.3096 0.593175 17.3096 0.984842C17.3096 1.37651 17.63 1.69696 18.0217 1.69696C26.0331 1.69696 32.549 8.21287 32.549 16.2171C32.549 16.6088 32.8623 16.9292 33.2611 16.9292C33.6528 16.9292 33.9732 16.6088 33.9732 16.2171C33.9732 7.42242 26.8164 0.27272 18.0217 0.27272ZM24.9791 23.7229L24.0462 24.2285C22.4725 25.0901 20.4785 24.7982 19.2038 23.5235L11.6838 16.0035C10.4091 14.7288 10.1171 12.7348 10.9788 11.1539L11.4844 10.2282C12.0541 9.17424 12.2606 7.99212 12.0897 6.80999C11.9283 5.63026 11.3827 4.53657 10.5373 3.69802C9.4976 2.65833 8.11609 2.08863 6.642 2.08863C5.16791 2.08863 3.77927 2.65833 2.73957 3.69802L2.37639 4.06833C0.453663 5.99105 0.232905 9.30242 1.74972 13.4042C3.18109 17.3209 6.06518 21.5651 9.85366 25.3536C15.629 31.1289 22.0594 34.4545 26.674 34.4545C28.497 34.4545 30.0423 33.9347 31.139 32.838L31.5093 32.4677C32.0221 31.9555 32.4288 31.3471 32.7062 30.6775C32.9836 30.0079 33.1262 29.2901 33.1258 28.5653C33.1158 27.1057 32.5357 25.7078 31.5093 24.67C29.7931 22.9538 27.1084 22.5692 24.9791 23.7229Z" fill="#FFF9F2"/>
</svg>
