<svg width="33" height="33" viewBox="0 0 33 33" fill="none" xmlns="http://www.w3.org/2000/svg">
<path d="M11.1179 16.7273C11.118 15.6808 11.4284 14.6578 12.0098 13.7877C12.5913 12.9177 13.4177 12.2396 14.3846 11.8392C15.3515 11.4388 16.4154 11.3341 17.4417 11.5384C18.4681 11.7427 19.4108 12.2467 20.1507 12.9868C20.8906 13.7268 21.3944 14.6697 21.5985 15.6961C21.8025 16.7225 21.6976 17.7864 21.297 18.7532C20.8963 19.7199 20.218 20.5462 19.3478 21.1275C18.4776 21.7087 17.4546 22.0189 16.4081 22.0187C15.0049 22.0185 13.6592 21.4609 12.6671 20.4686C11.675 19.4762 11.1178 18.1305 11.1179 16.7273ZM8.25724 16.7273C8.25724 18.3393 8.73528 19.9152 9.63091 21.2556C10.5265 22.596 11.7995 23.6408 13.2889 24.2577C14.7783 24.8746 16.4171 25.036 17.9982 24.7215C19.5794 24.407 21.0317 23.6307 22.1716 22.4908C23.3115 21.3509 24.0878 19.8985 24.4023 18.3174C24.7168 16.7363 24.5554 15.0974 23.9385 13.6081C23.3216 12.1187 22.2769 10.8457 20.9365 9.95007C19.5961 9.05444 18.0202 8.5764 16.4081 8.5764C15.3377 8.57635 14.2778 8.78714 13.2888 9.19674C12.2999 9.60634 11.4013 10.2067 10.6444 10.9636C9.88756 11.7205 9.28718 12.6191 8.87758 13.608C8.46798 14.5969 8.25718 15.6569 8.25724 16.7273ZM22.9768 8.25343C22.9766 8.63015 23.0882 8.99846 23.2973 9.31178C23.5065 9.6251 23.8038 9.86936 24.1518 10.0137C24.4998 10.158 24.8828 10.1959 25.2523 10.1226C25.6218 10.0492 25.9613 9.86796 26.2277 9.6017C26.4942 9.33544 26.6758 8.99614 26.7494 8.62669C26.8231 8.25725 26.7856 7.87425 26.6415 7.52615C26.4975 7.17804 26.2535 6.88047 25.9404 6.67104C25.6273 6.4616 25.259 6.34973 24.8823 6.34956C24.3774 6.34979 23.8932 6.55042 23.536 6.90739C23.1789 7.26437 22.9781 7.74849 22.9776 8.25343M9.99607 29.6481C8.98952 29.637 7.99237 29.4528 7.0483 29.1035C6.36365 28.8396 5.74184 28.4353 5.2229 27.9166C4.70395 27.3978 4.29937 26.7762 4.03519 26.0917C3.68574 25.1476 3.50153 24.1505 3.49063 23.1439C3.41356 21.4708 3.39848 20.9682 3.39848 16.7294C3.39848 12.4906 3.41523 11.9891 3.49063 10.3144C3.50285 9.30796 3.68701 8.31101 4.03519 7.36663C4.29906 6.68177 4.70353 6.05981 5.2225 5.54083C5.74147 5.02186 6.36344 4.6174 7.0483 4.35352C7.99233 4.00408 8.9895 3.81987 9.99607 3.80897C11.6691 3.73189 12.1718 3.71681 16.4089 3.71681C20.646 3.71681 21.1491 3.73315 22.8239 3.80939C23.8303 3.8216 24.8273 4.00577 25.7717 4.35395C26.4565 4.61784 27.0785 5.02231 27.5974 5.54128C28.1164 6.06025 28.5209 6.6822 28.7848 7.36705C29.1342 8.31109 29.3184 9.30826 29.3293 10.3148C29.4064 11.9904 29.4215 12.4906 29.4215 16.7298C29.4215 20.969 29.406 21.47 29.3293 23.1447C29.3176 24.1512 29.1334 25.1482 28.7848 26.0925C28.5206 26.777 28.116 27.3987 27.5971 27.9174C27.0781 28.4361 26.4563 28.8405 25.7717 29.1043C24.8276 29.4538 23.8305 29.638 22.8239 29.6489C21.1508 29.726 20.6481 29.7411 16.4089 29.7411C12.1697 29.7411 11.6687 29.7256 9.99607 29.6489M9.86454 0.950848C8.54746 0.976744 7.24434 1.22603 6.0107 1.68809C4.95614 2.09583 3.99841 2.71944 3.19892 3.51893C2.39944 4.31842 1.77583 5.27614 1.36809 6.33071C0.906083 7.56436 0.656801 8.86748 0.630841 10.1845C0.552507 11.8769 0.534912 12.4181 0.534912 16.7289C0.534912 21.0398 0.552926 21.5806 0.630841 23.2733C0.656793 24.5904 0.906075 25.8935 1.36809 27.1272C1.77585 28.1817 2.39946 29.1394 3.19895 29.9389C3.99843 30.7384 4.95615 31.362 6.0107 31.7698C7.2444 32.2316 8.54749 32.4809 9.86454 32.507C11.5577 32.5841 12.0981 32.603 16.4089 32.603C20.7198 32.603 21.2606 32.5849 22.9533 32.507C24.2704 32.481 25.5735 32.2317 26.8072 31.7698C27.8617 31.362 28.8194 30.7384 29.6189 29.9389C30.4184 29.1394 31.042 28.1817 31.4498 27.1272C31.9124 25.8937 32.1617 24.5905 32.187 23.2733C32.2641 21.5797 32.2817 21.0398 32.2817 16.7289C32.2817 12.4181 32.2637 11.8773 32.187 10.1845C32.1611 8.86747 31.9118 7.56434 31.4498 6.33071C31.042 5.27634 30.4186 4.31876 29.6193 3.5193C28.8201 2.71984 27.8627 2.09612 26.8084 1.68809C25.5749 1.22573 24.2717 0.976436 22.9546 0.950848C21.2618 0.873352 20.721 0.854919 16.411 0.854919C12.101 0.854919 11.559 0.872934 9.86537 0.950848" fill="white"/>
</svg>
